<!-- save as repo-buttons.svg -->
<svg xmlns="http://www.w3.org/2000/svg" viewBox="0 0 1300 320" width="1300" height="320" role="img" aria-label="Mossarraf Hossain Robin Repositories">
  <!-- Gray background -->
  <rect width="1300" height="320" rx="20" ry="20" fill="#2f2f2f"/>

  <defs>
    <!-- Shadow filter for buttons -->
    <filter id="shadow" x="-50%" y="-50%" width="200%" height="200%">
      <feDropShadow dx="0" dy="2" stdDeviation="2" flood-color="black" flood-opacity="0.5"/>
    </filter>
  </defs>

  <g filter="url(#shadow)">
    <!-- Row 1 -->
    <rect x="20" y="30" width="180" height="50" rx="15" fill="#3776AB"/>
    <text x="110" y="60" font-family="Verdana" font-size="14" font-weight="bold" fill="#ffffff" text-anchor="middle" alignment-baseline="middle">python-for-beginner</text>

    <rect x="220" y="30" width="180" height="50" rx="15" fill="#FF5733"/>
    <text x="310" y="60" font-family="Verdana" font-size="14" font-weight="bold" fill="#ffffff" text-anchor="middle" alignment-baseline="middle">prottoy-foundation</text>

    <rect x="420" y="30" width="180" height="50" rx="15" fill="#6f42c1"/>
    <text x="510" y="60" font-family="Verdana" font-size="14" font-weight="bold" fill="#ffffff" text-anchor="middle" alignment-baseline="middle">portfolio</text>

    <rect x="620" y="30" width="180" height="50" rx="15" fill="#20c997"/>
    <text x="710" y="60" font-family="Verdana" font-size="14" font-weight="bold" fill="#ffffff" text-anchor="middle" alignment-baseline="middle">NetOptima-Proto_type</text>

    <rect x="820" y="30" width="180" height="50" rx="15" fill="#fd7e14"/>
    <text x="910" y="60" font-family="Verdana" font-size="14" font-weight="bold" fill="#ffffff" text-anchor="middle" alignment-baseline="middle">Bit-by-Bit-Line-Coding-Visualizer</text>

    <rect x="1020" y="30" width="180" height="50" rx="15" fill="#0dcaf0"/>
    <text x="1110" y="60" font-family="Verdana" font-size="14" font-weight="bold" fill="#ffffff" text-anchor="middle" alignment-baseline="middle">NetOptima</text>

    <!-- Row 2 -->
    <rect x="20" y="100" width="180" height="50" rx="15" fill="#dc3545"/>
    <text x="110" y="130" font-family="Verdana" font-size="14" font-weight="bold" fill="#ffffff" text-anchor="middle" alignment-baseline="middle">Educational-Resources</text>

    <rect x="220" y="100" width="180" height="50" rx="15" fill="#6610f2"/>
    <text x="310" y="130" font-family="Verdana" font-size="14" font-weight="bold" fill="#ffffff" text-anchor="middle" alignment-baseline="middle">frontend-react-setup-student-kit</text>

    <rect x="420" y="100" width="180" height="50" rx="15" fill="#198754"/>
    <text x="510" y="130" font-family="Verdana" font-size="14" font-weight="bold" fill="#ffffff" text-anchor="middle" alignment-baseline="middle">Inventory-Management-System-Java-Swing-UI</text>

    <rect x="620" y="100" width="180" height="50" rx="15" fill="#fd7e14"/>
    <text x="710" y="130" font-family="Verdana" font-size="14" font-weight="bold" fill="#ffffff" text-anchor="middle" alignment-baseline="middle">elitefootwear</text>

    <rect x="820" y="100" width="180" height="50" rx="15" fill="#3776AB"/>
    <text x="910" y="130" font-family="Verdana" font-size="14" font-weight="bold" fill="#ffffff" text-anchor="middle" alignment-baseline="middle">onebite</text>

    <rect x="1020" y="100" width="180" height="50" rx="15" fill="#FF5733"/>
    <text x="1110" y="130" font-family="Verdana" font-size="14" font-weight="bold" fill="#ffffff" text-anchor="middle" alignment-baseline="middle">prottoy-foundation</text>

    <!-- Row 3 -->
    <rect x="20" y="170" width="180" height="50" rx="15" fill="#6f42c1"/>
    <text x="110" y="200" font-family="Verdana" font-size="14" font-weight="bold" fill="#ffffff" text-anchor="middle" alignment-baseline="middle">Bit-To-Bit-Array-Multiplier</text>

    <rect x="220" y="170" width="180" height="50" rx="15" fill="#20c997"/>
    <text x="310" y="200" font-family="Verdana" font-size="14" font-weight="bold" fill="#ffffff" text-anchor="middle" alignment-baseline="middle">Byte-By-Byte-Networking</text>

    <rect x="420" y="170" width="180" height="50" rx="15" fill="#fd7e14"/>
    <text x="510" y="200" font-family="Verdana" font-size="14" font-weight="bold" fill="#ffffff" text-anchor="middle" alignment-baseline="middle">MiniDOS</text>

    <rect x="620" y="170" width="180" height="50" rx="15" fill="#0dcaf0"/>
    <text x="710" y="200" font-family="Verdana" font-size="14" font-weight="bold" fill="#ffffff" text-anchor="middle" alignment-baseline="middle">BiteOnline</text>

    <rect x="820" y="170" width="180" height="50" rx="15" fill="#6610f2"/>
    <text x="910" y="200" font-family="Verdana" font-size="14" font-weight="bold" fill="#ffffff" text-anchor="middle" alignment-baseline="middle">mongodb-documentation</text>

    <rect x="1020" y="170" width="180" height="50" rx="15" fill="#dc3545"/>
    <text x="1110" y="200" font-family="Verdana" font-size="14" font-weight="bold" fill="#ffffff" text-anchor="middle" alignment-baseline="middle">my-archive</text>

    <!-- Row 4 -->
    <rect x="20" y="240" width="180" height="50" rx="15" fill="#198754"/>
    <text x="110" y="270" font-family="Verdana" font-size="14" font-weight="bold" fill="#ffffff" text-anchor="middle" alignment-baseline="middle">AgroCulture-Management-System</text>

    <rect x="220" y="240" width="180" height="50" rx="15" fill="#fd7e14"/>
    <text x="310" y="270" font-family="Verdana" font-size="14" font-weight="bold" fill="#ffffff" text-anchor="middle" alignment-baseline="middle">Full-Stack-Web-Development-</text>
  </g>
</svg>
